<svg width="512" height="512" viewBox="0 0 512 512" fill="none" xmlns="http://www.w3.org/2000/svg">
    <rect width="512" height="512" fill="#090B0B"/>
    <path d="M427.787 172H296.889V188.277H427.787V172Z" fill="white"/>
    <path d="M427.787 190.878H296.889V207.154H427.787V190.878Z" fill="white"/>
    <path d="M427.787 209.74H296.889V226.017H427.787V209.74Z" fill="white"/>
    <path d="M427.787 228.618H296.889V244.895H427.787V228.618Z" fill="white"/>
    <path d="M427.787 247.496H296.889V263.773H427.787V247.496Z" fill="white"/>
    <path d="M428 266.359H297.102V282.636H428V266.359Z" fill="white"/>
    <path d="M427.68 285.237H296.783V301.513H427.68V285.237Z" fill="white"/>
    <path d="M427.68 304.115H296.783V320.391H427.68V304.115Z" fill="white"/>
    <path d="M427.893 322.993H296.996V339.269H427.893V322.993Z" fill="white"/>
    <path d="M245.778 172H116.325V188.277H245.778V172Z" fill="white"/>
    <path d="M262.024 190.878H100.17V207.154H262.024V190.878Z" fill="white"/>
    <path d="M262.024 304.115H100.17V320.391H262.024V304.115Z" fill="white"/>
    <path d="M245.747 322.993H116.325V339.269H245.747V322.993Z" fill="white"/>
    <path d="M138.839 247.496H84V263.773H138.839V247.496Z" fill="white"/>
    <path d="M148.665 266.374H84V282.651H148.665V266.374Z" fill="white"/>
    <path d="M278.088 266.374H213.422V282.651H278.088V266.374Z" fill="white"/>
    <path d="M278.087 285.237H207.17V301.513H278.087V285.237Z" fill="white"/>
    <path d="M156.652 285.237H84V301.513H156.652V285.237Z" fill="white"/>
    <path d="M156.652 209.74H84V226.017H156.652V209.74Z" fill="white"/>
    <path d="M278.118 209.74H207.17V226.017H278.118V209.74Z" fill="white"/>
    <path d="M148.665 228.618H84V244.895H148.665V228.618Z" fill="white"/>
    <path d="M278.118 228.618H213.392V244.895H278.118V228.618Z" fill="white"/>
</svg>
