<svg width="120" height="120" viewBox="0 0 120 120" fill="none" xmlns="http://www.w3.org/2000/svg">
<path d="M68.2075 2.20837C63.1244 -0.736125 56.8639 -0.736125 51.7925 2.20837L14.1826 23.9766C9.09954 26.9211 5.9751 32.3544 5.9751 38.2317V81.7683C5.9751 87.6456 9.09954 93.0789 14.1826 96.0234L51.7925 117.792C56.8755 120.736 63.1361 120.736 68.2075 117.792L105.817 96.0234C110.9 93.0789 114.025 87.6456 114.025 81.7683V38.2317C114.025 32.3544 110.9 26.9211 105.817 23.9766L68.2075 2.20837Z" fill="url(#paint0_linear_292_106)"/>
<path d="M53.6113 18.0993L26.937 33.5346C22.8682 35.8832 20.3733 40.2298 20.3733 44.9387V75.8208C20.3733 80.5297 22.8798 84.8647 26.937 87.2249L53.6113 102.66C57.6801 105.009 62.6815 105.009 66.7503 102.66L93.4247 87.2249C97.4934 84.8763 99.9883 80.5297 99.9883 75.8208V44.9387C99.9883 40.2298 97.4818 35.8949 93.4247 33.5346L66.7503 18.0993C62.6815 15.7507 57.6801 15.7507 53.6113 18.0993ZM57.7151 25.4138C59.7436 24.2337 62.2502 24.2337 64.2787 25.4138L89.7056 40.1246C91.7342 41.3048 92.9933 43.4664 92.9933 45.8267V75.26C92.9933 77.6086 91.7458 79.7819 89.7056 80.962L64.2787 95.6728C62.2502 96.853 59.7436 96.853 57.7151 95.6728L32.2881 80.962C30.2596 79.7819 29.0005 77.6203 29.0005 75.26V45.8267C29.0005 43.4781 30.2479 41.3048 32.2881 40.1246L57.7151 25.4138ZM60.5947 53.0127C60.0817 52.7206 59.4638 52.7206 58.9508 53.0127L53.4831 56.1792C52.9701 56.4713 52.667 57.0205 52.667 57.6047V63.9377C52.667 64.5219 52.9818 65.0711 53.4831 65.3632L58.9508 68.5297C59.4638 68.8218 60.0817 68.8218 60.5947 68.5297L66.0624 65.3632C66.5754 65.0711 66.8785 64.5219 66.8785 63.9377V57.6047C66.8785 57.0205 66.5638 56.4713 66.0624 56.1792L60.5947 53.0127ZM64.6984 59.1237L61.4108 65.7021L92.6086 83.8014L95.8962 77.223L64.6984 59.1237Z" fill="white"/>
<defs>
<linearGradient id="paint0_linear_292_106" x1="86.3055" y1="14.2705" x2="41.9042" y2="99.5712" gradientUnits="userSpaceOnUse">
<stop stop-color="#2FABFF"/>
<stop offset="0.31" stop-color="#5570FF"/>
<stop offset="0.62" stop-color="#7B36FF"/>
<stop offset="0.81" stop-color="#6A2CDC"/>
<stop offset="1" stop-color="#5921B8"/>
</linearGradient>
</defs>
</svg>
